<svg width="111" height="15" viewBox="0 0 111 15" fill="none" xmlns="http://www.w3.org/2000/svg">
<path d="M75.8984 0.559702C75.8984 0.250587 75.6459 4.77074e-07 75.3345 4.77074e-07L64.9027 0C64.5913 -1.35119e-08 64.3388 0.250587 64.3388 0.559702V2.51866C64.3388 2.82777 64.5913 3.07836 64.9027 3.07836L75.3345 3.07836C75.6459 3.07836 75.8984 2.82777 75.8984 2.51866V0.559702Z" fill="white"/>
<path d="M101.555 4.77074e-07C101.866 4.77074e-07 102.119 0.250587 102.119 0.559702V2.51866C102.119 2.82777 101.866 3.07836 101.555 3.07836L99.0175 3.07836C98.7061 3.07836 98.4536 2.82777 98.4536 2.51866V0.559702C98.4536 0.250587 98.7061 3.29003e-07 99.0175 3.42515e-07L101.555 4.77074e-07Z" fill="white"/>
<path d="M51.9898 0.559702C51.9898 0.250587 51.736 -0.00261893 51.4257 0.0230247C47.8026 0.322394 45.5052 3.50581 45.5052 7.5H45.5052C45.5052 11.4942 47.8025 14.6776 51.4256 14.977C51.736 15.0026 51.9898 14.7494 51.9898 14.4403V12.7612C51.9898 12.4521 51.7351 12.2061 51.43 12.144C49.8918 11.8307 48.3246 10.2431 48.3246 7.5H48.3246C48.3247 4.75687 49.8918 3.16927 51.4301 2.85603C51.7352 2.79391 51.9898 2.54792 51.9898 2.23881V0.559702Z" fill="white"/>
<path d="M75.3345 11.9216C75.6459 11.9216 75.8984 12.1722 75.8984 12.4813V14.4403C75.8984 14.7494 75.6459 15 75.3345 15H64.9309C64.6195 15 64.367 14.7494 64.367 14.4403V12.4813C64.367 12.1722 64.6195 11.9216 64.9309 11.9216L75.3345 11.9216Z" fill="white"/>
<path d="M74.7988 6.52052C74.7988 6.21141 74.5464 5.96082 74.235 5.96082L64.9309 5.96082C64.6195 5.96082 64.367 6.21141 64.367 6.52052V8.47948C64.367 8.78859 64.6195 9.03918 64.9309 9.03918H74.235C74.5464 9.03918 74.7988 8.78859 74.7988 8.47948V6.52052Z" fill="white"/>
<path d="M11.3438 0.519582L7.18948 10.5224L4.22911 3.07836H7.6124C7.92382 3.07836 8.17628 2.82777 8.17628 2.51866V0.559702C8.17628 0.250587 7.92382 4.77074e-07 7.6124 4.77074e-07H0.43592C0.195168 4.77074e-07 0 0.193722 0 0.432689C0 0.516569 0.0163804 0.599653 0.0482353 0.677345L5.77777 14.6513C5.86422 14.8621 6.07072 15 6.30006 15H8.07353C8.30556 15 8.51391 14.8589 8.59855 14.6445L14.0775 0.763877C14.2224 0.396773 13.9496 4.77074e-07 13.5524 4.77074e-07H12.1258C11.7831 4.77074e-07 11.4744 0.205165 11.3438 0.519582Z" fill="white"/>
<path d="M19.2002 4.77074e-07C18.8887 4.77074e-07 18.6363 0.250587 18.6363 0.559702V4.75746C18.6363 5.06658 18.8887 5.31716 19.2002 5.31716H21.1737C21.4852 5.31716 21.7376 5.06658 21.7376 4.75746V0.559702C21.7376 0.250587 21.4852 4.77074e-07 21.1737 4.77074e-07H19.2002Z" fill="white"/>
<path d="M27.461 10.2425C27.461 9.93342 27.7135 9.68284 28.0249 9.68284H29.9985C30.3099 9.68284 30.5624 9.93342 30.5624 10.2425V14.4403C30.5624 14.7494 30.3099 15 29.9985 15H28.0249C27.7135 15 27.461 14.7494 27.461 14.4403V10.2425Z" fill="white"/>
<path d="M81.4808 9.68284C81.1694 9.68284 80.9169 9.93342 80.9169 10.2425V14.4403C80.9169 14.7494 81.1694 15 81.4808 15H83.4544C83.7658 15 84.0183 14.7494 84.0183 14.4403V10.2425C84.0183 9.93342 83.7658 9.68284 83.4544 9.68284H81.4808Z" fill="white"/>
<path d="M18.6363 6.60448C18.6363 6.29536 18.8887 6.04478 19.2002 6.04478H21.1737C21.4852 6.04478 21.7376 6.29536 21.7376 6.60448V14.4403C21.7376 14.7494 21.4852 15 21.1737 15H19.2002C18.8887 15 18.6363 14.7494 18.6363 14.4403V6.60448Z" fill="white"/>
<path d="M40.5712 0.559702V14.4403C40.5712 14.7494 40.3188 15 40.0074 15H37.9097C37.634 15 37.3756 14.8666 37.2173 14.6426L27.6144 1.0566C27.5146 0.91534 27.461 0.746974 27.461 0.574418V0.559702C27.461 0.250587 27.7135 4.77074e-07 28.0249 4.77074e-07H30.1249C30.3993 4.77074e-07 30.6566 0.132115 30.8152 0.354387L37.4699 9.68284V0.559702C37.4699 0.250587 37.7224 4.77074e-07 38.0338 4.77074e-07H40.0074C40.3188 4.77074e-07 40.5712 0.250587 40.5712 0.559702Z" fill="white"/>
<path d="M94.0272 14.4403V0.559702C94.0272 0.250587 93.7747 4.77074e-07 93.4633 4.77074e-07H91.4897C91.1783 4.77074e-07 90.9258 0.250587 90.9258 0.559702V9.68284L84.2711 0.354387C84.1125 0.132115 83.8552 4.77074e-07 83.5808 4.77074e-07H81.4808C81.1694 4.77074e-07 80.9169 0.250587 80.9169 0.559702V0.574418C80.9169 0.746974 80.9705 0.91534 81.0704 1.0566L90.6732 14.6426C90.8316 14.8666 91.09 15 91.3656 15H93.4633C93.7747 15 94.0272 14.7494 94.0272 14.4403Z" fill="white"/>
<path d="M105.728 15H103.754C103.443 15 103.19 14.7494 103.19 14.4403V0.559702C103.19 0.250588 103.443 4.77074e-07 103.754 4.77074e-07H110.436C110.748 4.77074e-07 111 0.250587 111 0.559702V2.51866C111 2.82777 110.748 3.07836 110.436 3.07836H106.292V14.4403C106.292 14.7494 106.039 15 105.728 15Z" fill="white"/>
<path d="M59.597 9.96146C59.3023 12.4268 57.0796 14.7462 53.7102 14.9806C53.3995 15.0022 53.1458 14.7495 53.1458 14.4404V12.7613C53.1458 12.4521 53.3999 12.2056 53.7074 12.1568C55.1382 11.9294 56.3336 10.8774 56.6973 9.94795C56.8101 9.65981 57.0635 9.40304 57.3749 9.40304H59.0665C59.378 9.40304 59.6337 9.6545 59.597 9.96146Z" fill="white"/>
<path d="M53.7102 0.0194401C57.0796 0.253886 59.3023 2.57326 59.597 5.03859C59.6337 5.34555 59.378 5.59702 59.0665 5.59702H57.3749C57.0635 5.59702 56.8101 5.34025 56.6973 5.0521C56.3336 4.12263 55.1382 3.07068 53.7074 2.84331C53.3999 2.79444 53.1458 2.54792 53.1458 2.23881V0.559701C53.1458 0.250586 53.3995 -0.00217604 53.7102 0.0194401Z" fill="white"/>
</svg>
