<svg width="92" height="24" viewBox="0 0 92 24" fill="none" xmlns="http://www.w3.org/2000/svg">
<path d="M18.2034 0.535999V4.92H12.2514V23H6.77938V4.92H0.827376V0.535999H18.2034ZM38.1336 19.032H29.7496L28.4056 23H22.6776L30.8056 0.535999H37.1416L45.2696 23H39.4776L38.1336 19.032ZM36.7256 14.808L33.9416 6.584L31.1896 14.808H36.7256ZM64.5434 11.48C65.8447 11.7573 66.89 12.408 67.6794 13.432C68.4687 14.4347 68.8634 15.5867 68.8634 16.888C68.8634 18.7653 68.202 20.2587 66.8794 21.368C65.578 22.456 63.754 23 61.4074 23H50.9434V0.535999H61.0554C63.338 0.535999 65.1194 1.05867 66.3994 2.104C67.7007 3.14933 68.3514 4.568 68.3514 6.36C68.3514 7.68267 67.9994 8.78133 67.2954 9.656C66.6127 10.5307 65.6954 11.1387 64.5434 11.48ZM56.4154 9.624H59.9994C60.8954 9.624 61.578 9.432 62.0474 9.048C62.538 8.64267 62.7834 8.056 62.7834 7.288C62.7834 6.52 62.538 5.93333 62.0474 5.528C61.578 5.12267 60.8954 4.92 59.9994 4.92H56.4154V9.624ZM60.4474 18.584C61.3647 18.584 62.0687 18.3813 62.5594 17.976C63.0714 17.5493 63.3274 16.9413 63.3274 16.152C63.3274 15.3627 63.0607 14.744 62.5274 14.296C62.0154 13.848 61.3007 13.624 60.3834 13.624H56.4154V18.584H60.4474ZM83.3651 23.224C81.7225 23.224 80.2505 22.9573 78.9491 22.424C77.6478 21.8907 76.6025 21.1013 75.8131 20.056C75.0451 19.0107 74.6398 17.752 74.5971 16.28H80.4211C80.5065 17.112 80.7945 17.752 81.2851 18.2C81.7758 18.6267 82.4158 18.84 83.2051 18.84C84.0158 18.84 84.6558 18.6587 85.1251 18.296C85.5945 17.912 85.8291 17.3893 85.8291 16.728C85.8291 16.1733 85.6371 15.7147 85.2531 15.352C84.8905 14.9893 84.4318 14.6907 83.8771 14.456C83.3438 14.2213 82.5758 13.9547 81.5731 13.656C80.1225 13.208 78.9385 12.76 78.0211 12.312C77.1038 11.864 76.3145 11.2027 75.6531 10.328C74.9918 9.45333 74.6611 8.312 74.6611 6.904C74.6611 4.81333 75.4185 3.18133 76.9331 2.008C78.4478 0.813333 80.4211 0.216 82.8531 0.216C85.3278 0.216 87.3225 0.813333 88.8371 2.008C90.3518 3.18133 91.1625 4.824 91.2691 6.936H85.3491C85.3065 6.21067 85.0398 5.64533 84.5491 5.24C84.0585 4.81333 83.4291 4.6 82.6611 4.6C81.9998 4.6 81.4665 4.78133 81.0611 5.144C80.6558 5.48533 80.4531 5.98667 80.4531 6.648C80.4531 7.37333 80.7945 7.93867 81.4771 8.344C82.1598 8.74933 83.2265 9.18667 84.6771 9.656C86.1278 10.1467 87.3011 10.616 88.1971 11.064C89.1145 11.512 89.9038 12.1627 90.5651 13.016C91.2265 13.8693 91.5571 14.968 91.5571 16.312C91.5571 17.592 91.2265 18.7547 90.5651 19.8C89.9251 20.8453 88.9865 21.6773 87.7491 22.296C86.5118 22.9147 85.0505 23.224 83.3651 23.224Z" fill="white"/>
</svg>
